<svg width="85" height="100" viewBox="0 0 85 100" fill="none" xmlns="http://www.w3.org/2000/svg">
<path d="M57.2829 66.0066L31.6308 9.65627C28.9535 3.77502 23.0872 0 16.6253 0C4.88828 0 -3.08999 11.9163 1.38141 22.7682L29.7785 91.6865C31.8513 96.7171 36.7546 100 42.1955 100C47.4352 100 52.1965 96.9526 54.3908 92.1946L57.2336 86.0307C60.162 79.6809 60.18 72.3707 57.2829 66.0066Z" fill="#015FC9"/>
<path d="M68.4734 58.1336L83.6487 22.1648C88.0877 11.6433 80.3629 0 68.9433 0C62.5128 0 56.7104 3.85902 54.224 9.78936L52.2934 14.3941C49.7364 20.4929 49.8713 27.3875 52.6648 33.3817L64.2368 58.2118C64.6174 59.0284 65.4367 59.5506 66.3378 59.5506C67.2698 59.5506 68.1111 58.9923 68.4734 58.1336Z" fill="#015FC9"/>
</svg>
